# xmcd
#
# Track frame offsets:
#	150
#	17012
#	35514
#	48470
#	64810
#	80618
#	94262
#	106722
#	123213
#	136992
#	153299
#	167997
#	182756
#	197301
#	212479
#	224754
#
# Disc length: 3185 seconds
#
# Revision: 0
# Processed by: cddbd v1.5.2PL0 Copyright (c) Steve Scherf et al.
# Submitted via: EasyCDDAExtractor 2010.4.0.0
#
DISCID=da0c6f10
DTITLE=Σταμάτης Κόκοτας - Αυτά που ήθελα να πω
DYEAR=2006
DGENRE=Λαϊκό
TTITLE0=Μια Κυριακή
TTITLE1=Καισαριανή
TTITLE2=Ανεμώνα
TTITLE3=Σ' ένα σπίτι κλειστό
TTITLE4=Απόψε στις ακρογιαλιές
TTITLE5=Τα παλιομισοφόρια
TTITLE6=Ένα αμάξι με δυο άλογα
TTITLE7=Το μερτικό μου απ' τη χαρά
TTITLE8=Αγριολούλουδο
TTITLE9=Συννεφιασμένη Κυριακή
TTITLE10=Μακάρι να 'χα δυο καρδιές
TTITLE11=Νύχτωσε χωρίς φεγγάρι
TTITLE12=Έχω μια βάρκα με κουπιά
TTITLE13=Ο κυρ - Θάνος
TTITLE14=Υπομονή
TTITLE15=Ρολόι - Κομπολόι
EXTD=
EXTT0=
EXTT1=
EXTT2=
EXTT3=
EXTT4=
EXTT5=
EXTT6=
EXTT7=
EXTT8=
EXTT9=
EXTT10=
EXTT11=
EXTT12=
EXTT13=
EXTT14=
EXTT15=
PLAYORDER=
